<?xml version="1.0" standalone="no"?>
<!DOCTYPE svg PUBLIC "-//W3C//DTD SVG 20010904//EN"
 "http://www.w3.org/TR/2001/REC-SVG-20010904/DTD/svg10.dtd">
<svg version="1.0" xmlns="http://www.w3.org/2000/svg"
 width="108.000000pt" height="165.000000pt" viewBox="0 0 108.000000 165.000000"
 preserveAspectRatio="xMidYMid meet">

<g transform="translate(0.000000,165.000000) scale(0.100000,-0.100000)"
fill="#6495ED" stroke="none">
<path d="M239 1515 c-9 -9 -31 -24 -50 -33 -45 -23 -59 -62 -37 -105 9 -18 19
-42 23 -54 6 -21 13 -24 100 -39 22 -4 46 -16 54 -26 9 -14 16 -17 24 -9 8 8
8 14 0 22 -9 9 -2 24 28 59 27 32 39 56 39 77 0 35 -39 83 -69 83 -11 0 -25 9
-31 20 -13 24 -59 27 -81 5z m58 -21 c-3 -3 -12 -4 -19 -1 -8 3 -5 6 6 6 11 1
17 -2 13 -5z m-87 -43 c0 -5 -9 -19 -20 -32 -21 -26 -27 -11 -10 22 11 19 30
26 30 10z m60 -21 c0 -11 -7 -20 -15 -20 -18 0 -19 12 -3 28 16 16 18 15 18
-8z m120 -25 c0 -18 -1 -18 -16 -3 -10 10 -14 23 -10 34 6 16 8 16 16 4 6 -8
10 -24 10 -35z m-170 -20 c0 -8 -4 -15 -10 -15 -5 0 -7 7 -4 15 4 8 8 15 10
15 2 0 4 -7 4 -15z"/>
<path d="M543 1361 c-74 -46 -51 -167 37 -186 60 -13 120 36 120 98 0 49 -13
73 -50 92 -39 20 -69 19 -107 -4z"/>
<path d="M434 1141 c-22 -10 -60 -42 -84 -70 -24 -28 -46 -51 -49 -51 -3 1
-22 26 -41 56 -38 61 -63 77 -97 61 -36 -16 -28 -60 35 -187 56 -113 58 -115
93 -118 32 -3 41 2 73 39 l36 43 0 -396 c0 -340 2 -399 15 -412 25 -24 54 -29
79 -12 27 17 29 31 46 291 6 87 12 161 14 162 3 3 12 -124 22 -307 4 -77 11
-112 23 -130 22 -31 57 -37 82 -14 18 16 19 35 19 369 0 194 3 373 6 398 l7
46 26 -32 c36 -45 41 -48 81 -45 33 3 37 7 77 88 61 124 76 166 69 193 -6 27
-31 38 -62 26 -11 -4 -38 -34 -59 -67 l-39 -59 -42 52 c-58 71 -111 95 -211
95 -54 0 -91 -6 -119 -19z"/>
</g>
</svg>
