<?xml version="1.0" standalone="no"?>
<!DOCTYPE svg PUBLIC "-//W3C//DTD SVG 20010904//EN"
 "http://www.w3.org/TR/2001/REC-SVG-20010904/DTD/svg10.dtd">
<svg version="1.0" xmlns="http://www.w3.org/2000/svg"
 width="88.000000pt" height="160.000000pt" viewBox="0 0 88.000000 160.000000"
 preserveAspectRatio="xMidYMid meet">

<g transform="translate(0.000000,160.000000) scale(0.100000,-0.100000)"
fill="#eb0000" stroke="none">
<path d="M618 1458 c-10 -8 -23 -49 -33 -98 -16 -77 -22 -91 -70 -150 -29 -36
-68 -74 -87 -84 -33 -19 -33 -19 -17 0 54 64 11 164 -71 164 -93 0 -132 -126
-55 -176 14 -9 40 -17 56 -18 l31 -1 -28 -20 c-43 -31 -67 -57 -96 -108 l-27
-47 -39 42 c-32 34 -43 40 -65 34 -47 -11 -43 -39 18 -136 31 -49 65 -92 75
-95 23 -7 54 8 74 37 9 12 19 18 23 14 16 -16 4 -229 -25 -416 -18 -120 -26
-203 -21 -217 11 -29 45 -38 72 -20 22 15 53 136 93 370 10 53 19 95 21 93 18
-17 63 -322 63 -423 0 -17 36 -53 53 -53 7 0 22 6 33 14 18 13 19 26 16 183
-3 129 -9 194 -27 278 -27 124 -55 317 -55 374 0 31 12 55 67 132 57 79 69
102 74 149 20 158 1 220 -53 178z"/>
</g>
</svg>
